<svg xmlns="http://www.w3.org/2000/svg" xml:space="preserve" viewBox="0 0 144 144"><path d="M133.34 0H10.63C4.76 0 0 4.65 0 10.38v123.23C0 139.35 4.76 144 10.63 144h122.72c5.87 0 10.66-4.65 10.66-10.39V10.38C144 4.65 139.22 0 133.34 0M42.71 122.71H21.35V53.99h21.36zM32.04 44.59c-6.85 0-12.39-5.55-12.39-12.39 0-6.83 5.54-12.38 12.39-12.38 6.83 0 12.38 5.55 12.38 12.38-.01 6.84-5.56 12.39-12.38 12.39m90.67 78.12h-21.34V89.29c0-7.97-.15-18.22-11.1-18.22-11.11 0-12.82 8.68-12.82 17.64v34H56.11V53.99H76.6v9.39h.29c2.85-5.4 9.82-11.1 20.21-11.1 21.63 0 25.62 14.23 25.62 32.74v37.69z" style="fill:#fff"/></svg>