<?xml version="1.0" encoding="UTF-8" standalone="no"?>
<!-- Created with Inkscape (http://www.inkscape.org/) -->

<svg
   width="185"
   height="185"
   viewBox="0 0 48.947915 48.947917"
   version="1.1"
   id="svg1"
   xml:space="preserve"
   inkscape:version="1.4 (86a8ad7, 2024-10-11)"
   sodipodi:docname="stacked pieces.svg"
   inkscape:export-filename="oooo.png"
   inkscape:export-xdpi="92.403671"
   inkscape:export-ydpi="92.403671"
   xmlns:inkscape="http://www.inkscape.org/namespaces/inkscape"
   xmlns:sodipodi="http://sodipodi.sourceforge.net/DTD/sodipodi-0.dtd"
   xmlns="http://www.w3.org/2000/svg"
   xmlns:svg="http://www.w3.org/2000/svg"><sodipodi:namedview
     id="namedview1"
     pagecolor="#ffffff"
     bordercolor="#000000"
     borderopacity="0.25"
     inkscape:showpageshadow="2"
     inkscape:pageopacity="0.0"
     inkscape:pagecheckerboard="0"
     inkscape:deskcolor="#d1d1d1"
     inkscape:document-units="mm"
     inkscape:zoom="1.0167041"
     inkscape:cx="378.67459"
     inkscape:cy="327.52893"
     inkscape:window-width="1730"
     inkscape:window-height="951"
     inkscape:window-x="-7"
     inkscape:window-y="0"
     inkscape:window-maximized="0"
     inkscape:current-layer="layer1" /><defs
     id="defs1" /><g
     inkscape:label="Layer 1"
     inkscape:groupmode="layer"
     id="layer1"
     transform="translate(0.85369483,-7.4468332)"><path
       id="rect1-4"
       style="display:inline;fill:#ff0000;stroke:#ff0000;stroke-width:1.05833;stroke-dasharray:none;stroke-opacity:1"
       d="m 23.704755,7.4556165 c -2.51522,0 -4.554244,1.55856 -4.554244,3.4809205 10e-6,1.89258 2.54101,2.36179 1.295011,4.85914 H 7.472671 v 12.8726 c -2.777059,1.5604 -2.946503,-1.30069 -4.819861,-1.3007 -1.92236,0 -3.480925,2.03903 -3.480925,4.55425 0,2.51522 1.558565,4.55424 3.480925,4.55424 1.882649,-1e-5 2.356693,-2.51474 4.819861,-1.31465 v 12.83694 h 12.867431 c 1.668769,2.86 -1.249526,3.01464 -1.249536,4.9072 0,1.92236 2.038507,3.48041 4.553727,3.48041 2.51522,0 4.554244,-1.55805 4.554244,-3.48041 -1e-5,-1.90461 -2.573903,-2.36787 -1.27124,-4.9072 h 12.748059 v -12.74444 c 2.865208,-1.6756 3.01913,1.24643 4.912878,1.24644 1.922358,0 3.480408,-2.03903 3.480408,-4.55425 0,-2.51522 -1.55805,-4.55372 -3.480408,-4.55372 -1.906037,10e-6 -2.368511,2.57762 -4.912878,1.26814 V 15.795677 H 26.98104 c -1.608706,-2.81411 1.277949,-2.97714 1.277959,-4.85914 0,-1.9223605 -2.039024,-3.4809205 -4.554244,-3.4809205 z"
       inkscape:export-filename="rect1-4.png"
       inkscape:export-xdpi="92.403671"
       inkscape:export-ydpi="92.403671"
       sodipodi:insensitive="true"
       inkscape:label="7a" /><path
       id="rect1-4-7-7-7"
       style="display:none;fill:#ff0000;stroke:none;stroke-width:1.05833;stroke-dasharray:none;stroke-opacity:1"
       d="m 23.567555,7.4468332 c -2.51522,0 -4.55424,1.55857 -4.55424,3.4809298 10e-6,1.86996 2.48246,2.34968 1.33997,4.76973 H 7.4610452 v 12.81731 c -2.79001,1.57727 -2.95743,-1.29294 -4.83381,-1.29295 -1.92236003,0 -3.48093003,2.03903 -3.48093003,4.55425 0,2.51522 1.55857,4.55424 3.48093003,4.55424 1.88615,-10e-6 2.35864,-2.52412 4.83381,-1.30793 v 12.87777 H 39.663735 v -32.20269 h -12.87209 c -1.4994,-2.7301 1.33014,-2.90745 1.33015,-4.76973 0,-1.9223598 -2.03902,-3.4809298 -4.55424,-3.4809298 z"
       inkscape:export-filename="offo.png"
       inkscape:export-xdpi="92.403671"
       inkscape:export-ydpi="92.403671"
       inkscape:label="20" /><path
       id="rect1"
       style="display:none;fill:#ff0000;stroke:none;stroke-width:1.05687;stroke-dasharray:none;stroke-opacity:1"
       d="m 7.5646585,15.818932 v 12.82867 c 2.5584005,1.33836 3.0155005,-1.25676 4.9221805,-1.25677 1.91695,0 3.4711,2.03891 3.4711,4.55424 0,2.51534 -1.55415,4.55425 -3.4711,4.55425 -1.89364,-10e-6 -2.04214,-2.93882 -4.9221805,-1.233 v 12.75633 H 39.675869 l -0.0455,-12.75943 c -2.60237,-1.38832 -3.05461,1.23609 -4.97696,1.2361 -1.92236,0 -3.48092,-2.03903 -3.48092,-4.55425 0,-2.51522 1.55856,-4.55424 3.48092,-4.55424 1.91803,10e-6 2.04929,3.00069 5.02243,1.18287 v -12.75477 h -12.76614 c -1.38186,2.60062 1.23351,3.05299 1.23352,4.97489 0,1.92245 -2.03318,3.48092 -4.54133,3.48092 -2.50815,0 -4.54132,-1.55847 -4.54132,-3.48092 10e-6,-1.90761 2.95736,-2.04868 1.20664,-4.97489 z"
       sodipodi:nodetypes="ccsssccccssscccssscc"
       inkscape:export-filename="iifi.png"
       inkscape:export-xdpi="92.403671"
       inkscape:export-ydpi="92.403671"
       inkscape:label="19"
       sodipodi:insensitive="true" /><path
       id="rect1-4-7-0-8"
       style="display:none;fill:#ff0000;stroke:none;stroke-width:1.05833;stroke-dasharray:none;stroke-opacity:1"
       d="m 39.752095,48.021877 v -12.89947 c 2.74797,-1.52259 2.92234,1.31877 4.78885,1.31878 1.92236,0 3.48093,-2.03903 3.48093,-4.55425 0,-2.51522 -1.55857,-4.55424 -3.48093,-4.55424 -1.87481,10e-6 -2.35238,2.49455 -4.78885,1.33015 v -12.84314 h -13.04675 c -1.08649,2.37787 1.3627,2.8633 1.36271,4.72064 0,1.92236 -2.03903,3.48092 -4.55425,3.48092 -2.51522,0 -4.55424,-1.55856 -4.55424,-3.48092 10e-6,-1.85076 2.79268,-2.03863 1.35547,-4.72064 H 7.549408 v 12.92634 c -2.805373,1.59731 -2.969867,-1.28312 -4.849833,-1.28312 -1.922353,0 -3.480923,2.03902 -3.480923,4.55424 0,2.51522 1.55857,4.55424 3.480923,4.55424 1.890224,-1e-5 2.36062,-2.53472 4.849833,-1.29966 v 12.75013 z"
       inkscape:export-filename="iofo.png"
       inkscape:export-xdpi="92.403671"
       inkscape:export-ydpi="92.403671"
       inkscape:label="18"
       sodipodi:insensitive="true" /><path
       id="rect1-4-7-7-3-3"
       style="display:none;fill:#ff0000;stroke:none;stroke-width:1.05833;stroke-dasharray:none;stroke-opacity:1"
       d="m 23.614063,7.4468332 c -2.51522,0 -4.554244,1.55857 -4.554244,3.4809298 10e-6,1.86996 2.48247,2.34968 1.33997,4.76973 H 7.5075527 v 12.92221 c -2.8343365,1.63516 -2.9941725,-1.26554 -4.8808395,-1.26555 -1.92236003,0 -3.48040803,2.03902 -3.48040803,4.55424 0,2.51522 1.558048,4.55424 3.48040803,4.55424 1.897997,-10e-6 2.364646,-2.55556 4.8808395,-1.28416 v 12.72171 H 39.710238 v -12.89275 c -2.40953,-1.12846 -2.890502,1.34616 -4.757332,1.34617 -1.92236,0 -3.480925,-2.03903 -3.480925,-4.55425 0,-2.51522 1.558565,-4.55424 3.480925,-4.55424 1.85939,10e-6 2.039362,2.8195 4.757332,1.33583 V 15.697493 H 26.838156 c -1.4994,-2.7301 1.330141,-2.90745 1.330151,-4.76973 0,-1.9223598 -2.039024,-3.4809298 -4.554244,-3.4809298 z"
       inkscape:export-filename="oifo.png"
       inkscape:export-xdpi="92.403671"
       inkscape:export-ydpi="92.403671"
       inkscape:label="17"
       sodipodi:insensitive="true" /><path
       id="path1-6-8"
       style="display:none;fill:#ff0000;stroke:none;stroke-width:1.05818"
       d="m 7.5646535,15.818782 v 32.20372 l 32.1112205,3e-4 -0.046,-12.75943 c -2.60237,-1.38832 -3.05461,1.2361 -4.97696,1.23611 -1.92236,0 -3.48092,-2.03903 -3.48092,-4.55425 0,-2.51522 1.55856,-4.55424 3.48092,-4.55424 1.91803,10e-6 2.0493,3.00069 5.02244,1.18287 v -12.75478 h -12.76615 c -1.38186,2.60062 1.23351,3.05299 1.23352,4.97489 0,1.92245 -2.03318,3.48093 -4.54133,3.48093 -2.50815,0 -4.54132,-1.55848 -4.54132,-3.48093 10e-6,-1.90761 2.95736,-2.04868 1.20664,-4.97489 z"
       inkscape:export-filename="iiff.png"
       inkscape:export-xdpi="92.403671"
       inkscape:export-ydpi="92.403671"
       sodipodi:nodetypes="ccccssscccssscc"
       inkscape:label="16"
       sodipodi:insensitive="true" /><path
       id="path1-6"
       style="display:none;fill:#ff0000;stroke:none;stroke-width:1.05818"
       d="m 7.5618052,15.72385 v 12.73307 c -2.88659,1.70368 -3.03596,-1.23402 -4.93458,-1.23403 -1.92236003,0 -3.48092003,2.03902 -3.48092003,4.55424 0,2.51522 1.55856,4.55424 3.48092003,4.55424 1.91164,-1e-5 2.37042,-2.59361 4.93458,-1.25728 V 47.92757 H 20.228215 c 1.7704,2.93725 -1.20405,3.07622 -1.20406,4.98626 0,1.92236 2.03903,3.48092 4.55425,3.48092 2.51522,0 4.55424,-1.55856 4.55424,-3.48092 -10e-6,-1.92235 -2.62442,-2.37459 -1.2361,-4.97696 l -0.95705,-0.009 h 13.73353 l -0.046,-12.75943 c -2.60237,-1.38832 -3.05461,1.2361 -4.97696,1.23611 -1.92236,0 -3.48092,-2.03903 -3.48092,-4.55425 0,-2.51522 1.55856,-4.55424 3.48092,-4.55424 1.91803,10e-6 2.0493,3.00069 5.02244,1.18287 V 15.72415 h -12.76615 c -1.38186,2.60062 1.23351,3.05299 1.23352,4.97489 0,1.92245 -2.03318,3.48093 -4.54133,3.48093 -2.50815,0 -4.54132,-1.55848 -4.54132,-3.48093 10e-6,-1.90761 2.95736,-2.04868 1.20664,-4.97489 z"
       inkscape:export-filename="iioo.png"
       inkscape:export-xdpi="92.403671"
       inkscape:export-ydpi="92.403671"
       inkscape:label="14"
       sodipodi:insensitive="true" /><path
       id="rect1-4-7-0-2"
       style="display:none;fill:#ff0000;stroke:none;stroke-width:1.05833;stroke-dasharray:none;stroke-opacity:1"
       d="m 23.586418,7.5191766 c -2.51522,0 -4.55425,1.55857 -4.55425,3.4809294 10e-6,1.87481 2.49456,2.35238 1.33016,4.78885 H 7.5191795 v 13.04675 c 2.37787,1.08649 2.8633025,-1.3627 4.7206425,-1.36271 1.92236,0 3.480925,2.03903 3.480925,4.55425 0,2.51522 -1.558565,4.55424 -3.480925,4.55424 -1.85076,-10e-6 -2.038632,-2.79268 -4.7206425,-1.35547 v 12.76563 H 20.445518 c 1.59731,2.80537 -1.28312,2.96986 -1.28312,4.84983 0,1.92236 2.03902,3.48093 4.55424,3.48093 2.51522,0 4.55425,-1.55857 4.55425,-3.48093 -10e-6,-1.89023 -2.53473,-2.36062 -1.29967,-4.84983 h 12.75013 v -12.86278 c -2.40163,-1.11799 -2.88356,1.35081 -4.74803,1.35082 -1.92236,0 -3.48092,-2.03903 -3.48092,-4.55425 0,-2.51522 1.55856,-4.55424 3.48092,-4.55424 1.85717,10e-6 2.03935,2.81318 4.74803,1.34152 v -12.92376 h -12.89947 c -1.52259,-2.74797 1.31877,-2.92234 1.31878,-4.78885 0,-1.9223594 -2.03902,-3.4809294 -4.55424,-3.4809294 z"
       inkscape:export-filename="oioi.png"
       inkscape:export-xdpi="92.403671"
       inkscape:export-ydpi="92.403671"
       inkscape:label="13"
       sodipodi:insensitive="true" /><path
       id="rect1-4-7-7-3-4-3"
       style="display:none;fill:#ff0000;stroke:none;stroke-width:1.05833;stroke-dasharray:none;stroke-opacity:1"
       d="m 39.599645,15.677343 h -12.79146 c -1.47375,-2.7103 1.34048,-2.89203 1.34048,-4.74958 0,-1.9223598 -2.03903,-3.4809298 -4.55425,-3.4809298 -2.51522,0 -4.55425,1.55857 -4.55425,3.4809298 2e-5,1.87236 2.48763,2.35084 1.3343,4.77903 -5.65796,-0.004 -12.9774998,-0.0295 -12.9774998,-0.0295 v 12.87208 c -2.7301,1.4994 -2.90746,-1.33014 -4.76974,-1.33015 -1.92236003,0 -3.48092003,2.03902 -3.48092003,4.55424 0,2.51522 1.55856,4.55425 3.48092003,4.55425 1.86995,-1e-5 2.34969,-2.48247 4.76974,-1.33997 v 12.89223 H 20.127965 c 1.18631,-2.45287 -1.32032,-2.92833 -1.32034,-4.80797 0,-1.92236 2.03902,-3.48093 4.55424,-3.48093 2.51522,0 4.55425,1.55857 4.55425,3.48093 -10e-6,1.87071 -2.85364,2.04221 -1.30793,4.80797 h 12.99146 z"
       inkscape:export-filename="ofio.png"
       inkscape:export-xdpi="92.403671"
       inkscape:export-ydpi="92.403671"
       inkscape:label="10"
       sodipodi:insensitive="true" /><path
       id="rect1-4-7-7-3-7-2"
       style="display:none;fill:#ff0000;stroke:none;stroke-width:1.05833;stroke-dasharray:none;stroke-opacity:1"
       d="m 39.721604,15.94139 h -12.7863 c -1.26741,2.51324 1.2857,2.98008 1.28571,4.87723 0,1.92236 -2.03902,3.48092 -4.55424,3.48092 -2.51522,0 -4.55424,-1.55856 -4.55424,-3.48092 10e-6,-1.88598 2.89887,-2.04588 1.26762,-4.87723 H 7.5189235 v 12.89275 c 2.40953,1.12847 2.8905005,-1.34616 4.7573305,-1.34617 1.92236,0 3.48092,2.03903 3.48092,4.55425 0,2.51522 -1.55856,4.55424 -3.48092,4.55424 -1.85939,-1e-5 -2.03936,-2.81951 -4.7573305,-1.33584 V 48.14408 H 20.391004 c 1.49941,2.7301 -1.33014,2.90745 -1.33015,4.76974 0,1.92236 2.03902,3.48093 4.55424,3.48093 2.51522,0 4.55425,-1.55857 4.55425,-3.48093 -10e-6,-1.86997 -2.48247,-2.34969 -1.33997,-4.76974 h 12.89223 V 35.41307 c -2.45286,-1.18631 -2.92832,1.32032 -4.80797,1.32033 -1.92236,0 -3.48093,-2.03902 -3.48093,-4.55424 0,-2.51522 1.55857,-4.55425 3.48093,-4.55425 1.87071,10e-6 2.04221,2.85366 4.80797,1.30794 z"
       inkscape:export-filename="iioi.png"
       inkscape:export-xdpi="92.403671"
       inkscape:export-ydpi="92.403671"
       inkscape:label="9"
       sodipodi:insensitive="true" /><path
       id="rect1-4-7-7-3-7"
       style="display:none;fill:#ff0000;stroke:none;stroke-width:1.05833;stroke-dasharray:none;stroke-opacity:1"
       d="m 7.6408718,15.819452 v 12.7863 c 2.5132392,1.26741 2.9800742,-1.2857 4.8772222,-1.28571 1.92236,0 3.480925,2.03902 3.480925,4.55424 0,2.51522 -1.558565,4.55424 -3.480925,4.55424 -1.885977,-1e-5 -2.045874,-2.89886 -4.8772222,-1.26762 v 12.86123 H 20.533622 c 1.12847,-2.40953 -1.34616,-2.8905 -1.34617,-4.75733 0,-1.92236 2.03903,-3.48092 4.55425,-3.48092 2.51522,0 4.55424,1.55856 4.55424,3.48092 -10e-6,1.85939 -2.81951,2.03936 -1.33584,4.75733 h 12.88346 v -12.87208 c 2.7301,-1.4994 2.90745,1.33014 4.76973,1.33015 1.92236,0 3.48093,-2.03902 3.48093,-4.55424 0,-2.51522 -1.55857,-4.55425 -3.48093,-4.55425 -1.86996,10e-6 -2.34968,2.48247 -4.76973,1.33997 v -12.89223 h -12.73101 c -1.18631,2.45287 1.32032,2.92833 1.32033,4.80797 0,1.92236 -2.03902,3.48093 -4.55424,3.48093 -2.51522,0 -4.55425,-1.55857 -4.55425,-3.48093 10e-6,-1.87071 2.85366,-2.04221 1.30794,-4.80797 z"
       inkscape:export-filename="ioii.png"
       inkscape:export-xdpi="92.403671"
       inkscape:export-ydpi="92.403671"
       inkscape:label="8"
       sodipodi:insensitive="true" /><path
       id="path1-2-0"
       style="display:none;fill:#ff0000;stroke:none;stroke-width:1.05818"
       d="m 23.641451,7.4468332 c -2.51522,0 -4.554244,1.55805 -4.554244,3.4804098 10e-6,1.91557 2.60484,2.37248 1.249536,4.9506 H 7.5442418 v 12.59097 c 2.4607272,1.19682 2.9353412,-1.31619 4.8172772,-1.3162 1.92236,0 3.480408,2.03902 3.480408,4.55424 0,2.51522 -1.558048,4.55425 -3.480408,4.55425 -1.872655,-10e-6 -2.043217,-2.85926 -4.8172772,-1.30277 v 13.1222 H 20.238041 c 1.619764,2.82257 -1.272264,2.98397 -1.272274,4.86792 0,1.92236 2.039023,3.48092 4.554244,3.48092 2.51522,0 4.554244,-1.55856 4.554244,-3.48092 -9e-6,-1.8948 -2.547258,-2.36287 -1.290877,-4.86792 h 12.96355 v -12.95011 c 2.821033,-1.61776 2.982773,1.27329 4.86637,1.2733 1.922361,0 3.480924,-2.03902 3.480924,-4.55424 0,-2.51522 -1.558563,-4.55425 -3.480924,-4.55425 -1.894379,10e-6 -2.362768,2.54634 -4.86637,1.29192 V 15.877843 H 26.970964 c -1.723673,-2.90179 1.224721,-3.04854 1.224731,-4.9506 0,-1.9223598 -2.039024,-3.4804098 -4.554244,-3.4804098 z"
       inkscape:export-filename="oooi.png"
       inkscape:export-xdpi="92.403671"
       inkscape:export-ydpi="92.403671"
       inkscape:label="7"
       sodipodi:insensitive="true" /><path
       id="rect1-4-7"
       style="display:none;fill:#ff0000;stroke:none;stroke-width:1.05833;stroke-dasharray:none;stroke-opacity:1"
       d="M 7.5535438,15.85149 V 48.05418 H 20.40909 c 1.609945,2.81505 -1.277431,2.97795 -1.277441,4.86016 0,1.92236 2.039024,3.48041 4.554244,3.48041 2.51522,0 4.554244,-1.55805 4.554244,-3.48041 -10e-6,-1.89283 -2.541712,-2.36191 -1.294495,-4.86016 H 39.75623 V 35.1454 c 2.812064,-1.60604 2.975549,1.2795 4.857068,1.27951 1.92236,0 3.480924,-2.03902 3.480924,-4.55424 0,-2.51522 -1.558564,-4.55425 -3.480924,-4.55425 -1.892052,10e-6 -2.361532,2.53961 -4.857068,1.29605 V 15.85149 H 26.847457 c -1.159715,2.43297 1.331692,2.91094 1.331702,4.78472 0,1.92236 -2.038508,3.48093 -4.553728,3.48093 -2.51522,0 -4.554244,-1.55857 -4.554244,-3.48093 1e-5,-1.86559 2.838357,-2.04066 1.32085,-4.78472 z"
       inkscape:export-filename="ioof.png"
       inkscape:export-xdpi="92.403671"
       inkscape:export-ydpi="92.403671"
       inkscape:label="6"
       sodipodi:insensitive="true" /><path
       id="path1-2-9"
       style="display:none;fill:#ff0000;stroke:none;stroke-width:1.05818"
       d="m 7.4078252,15.819451 v 12.925826 c -2.74014,1.512416 -2.91593,-1.32394 -4.78059,-1.32395 -1.92236003,0 -3.48093003,2.039026 -3.48093003,4.554246 0,2.51522 1.55857,4.55424 3.48093003,4.55424 1.87272,-10e-6 2.35119,-2.48924 4.78059,-1.33428 v 12.8266 H 20.383775 c 1.12801,-2.40917 -1.34565,-2.89009 -1.34566,-4.75681 0,-1.92236 2.03903,-3.48093 4.55425,-3.48093 2.51522,0 4.55424,1.55857 4.55424,3.48093 -10e-6,1.85924 -2.81975,2.03946 -1.33687,4.75681 h 12.80077 V 15.819451 Z"
       inkscape:export-filename="ffio.png"
       inkscape:export-xdpi="92.403671"
       inkscape:export-ydpi="92.403671"
       inkscape:label="5"
       sodipodi:insensitive="true" /><path
       id="rect1-4-7-7-3-4"
       style="display:none;fill:#ff0000;stroke:none;stroke-width:1.05833;stroke-dasharray:none;stroke-opacity:1"
       d="m 7.3768152,15.941407 v 12.791468 c -2.7103,1.473745 -2.89203,-1.340477 -4.74958,-1.340487 -1.92236003,0 -3.48093003,2.039022 -3.48093003,4.554242 0,2.51522 1.55857,4.55425 3.48093003,4.55425 1.87236,-1e-5 2.35084,-2.48763 4.77903,-1.33429 -0.004,5.65796 -0.0295,12.9775 -0.0295,12.9775 H 20.248845 c 1.4994,2.7301 -1.33014,2.90746 -1.33015,4.76974 0,1.92236 2.03902,3.48092 4.55424,3.48092 2.51522,0 4.55425,-1.55856 4.55425,-3.48092 -10e-6,-1.86996 -2.48247,-2.34969 -1.33997,-4.76974 h 12.89223 v -12.731 c -2.45287,-1.18631 -2.92833,1.32032 -4.80797,1.32033 -1.92236,0 -3.48093,-2.03902 -3.48093,-4.55424 0,-2.51522 1.55857,-4.554248 3.48093,-4.554248 1.87071,10e-6 2.04221,2.853648 4.80797,1.307931 V 15.941407 Z"
       inkscape:export-filename="fioo.png"
       inkscape:export-xdpi="92.403671"
       inkscape:export-ydpi="92.403671"
       inkscape:label="4"
       sodipodi:insensitive="true" /><path
       id="rect1-4-7-7-3"
       style="display:none;fill:#ff0000;stroke:none;stroke-width:1.05833;stroke-dasharray:none;stroke-opacity:1"
       d="m 7.518922,15.9414 v 12.892754 c 2.409524,1.128466 2.890509,-1.346162 4.757333,-1.346172 1.92236,0 3.480924,2.039028 3.480924,4.554248 0,2.51522 -1.558564,4.55424 -3.480924,4.55424 -1.859385,-10e-6 -2.039369,-2.81951 -4.757333,-1.33584 v 12.88346 h 12.872083 c 1.4994,2.7301 -1.33014,2.90745 -1.33015,4.76973 0,1.92236 2.03902,3.48093 4.55424,3.48093 2.51522,0 4.55425,-1.55857 4.55425,-3.48093 -10e-6,-1.86996 -2.48247,-2.34968 -1.33997,-4.76973 h 12.89223 V 35.41308 c -2.45287,-1.18631 -2.92833,1.32032 -4.80797,1.32033 -1.92236,0 -3.48093,-2.03902 -3.48093,-4.55424 0,-2.51522 1.55857,-4.554245 3.48093,-4.554245 1.87071,10e-6 2.04221,2.853645 4.80797,1.307931 V 15.9414 Z"
       inkscape:export-filename="fioi.png"
       inkscape:export-xdpi="92.403671"
       inkscape:export-ydpi="92.403671"
       inkscape:label="3"
       sodipodi:insensitive="true" /><path
       id="rect1-4-7-0"
       style="display:none;fill:#ff0000;stroke:none;stroke-width:1.05833;stroke-dasharray:none;stroke-opacity:1"
       d="m 7.4884311,24.192583 v 12.899471 c -2.74797,1.522586 -2.922342,-1.318773 -4.788855,-1.318782 -1.92236001,0 -3.48092401,2.039028 -3.48092401,4.554248 0,2.51522 1.558564,4.55424 3.48092401,4.55424 1.874814,-1e-5 2.352381,-2.49455 4.788855,-1.33015 V 56.39475 H 20.53518 c 1.086487,-2.37787 -1.362698,-2.8633 -1.362707,-4.72064 0,-1.92236 2.039024,-3.48092 4.554244,-3.48092 2.51522,0 4.554244,1.55856 4.554244,3.48092 -10e-6,1.85076 -2.792677,2.03863 -1.355473,4.72064 H 39.691117 V 43.46841 c 2.805373,-1.59731 2.969867,1.28312 4.849833,1.28312 1.922358,0 3.480925,-2.03902 3.480925,-4.55424 0,-2.51522 -1.558567,-4.554243 -3.480925,-4.554243 -1.890224,10e-6 -2.36062,2.534723 -4.849833,1.299662 V 24.192583 Z"
       inkscape:export-filename="foio.png"
       inkscape:export-xdpi="92.403671"
       inkscape:export-ydpi="92.403671"
       inkscape:label="2"
       sodipodi:insensitive="true" /><path
       id="rect1-4-7-7"
       style="display:none;fill:#ff0000;stroke:none;stroke-width:1.05833;stroke-dasharray:none;stroke-opacity:1"
       d="M 7.4465737,15.941406 V 48.14409 H 20.318657 c 1.499398,2.7301 -1.330142,2.90746 -1.330152,4.76974 0,1.92236 2.039024,3.48092 4.554244,3.48092 2.51522,0 4.554244,-1.55856 4.554244,-3.48092 -10e-6,-1.86996 -2.482466,-2.34969 -1.33997,-4.76974 H 39.64926 v -12.731 c -2.452868,-1.18631 -2.928341,1.32032 -4.807976,1.32033 -1.92236,0 -3.480924,-2.03903 -3.480924,-4.55425 0,-2.51522 1.558564,-4.55424 3.480924,-4.55424 1.870707,10e-6 2.042214,2.85363 4.807976,1.307931 V 15.941406 Z"
       inkscape:export-filename="fiof.png"
       inkscape:export-xdpi="92.403671"
       inkscape:export-ydpi="92.403671"
       inkscape:label="1"
       sodipodi:insensitive="true" /></g></svg>
