<?xml version="1.0" encoding="UTF-8" standalone="no"?>
<svg
   id="info-icon"
   viewBox="0 0 24 24"
   version="1.1"
   sodipodi:docname="info-icon.svg"
   inkscape:version="1.4 (86a8ad7, 2024-10-11)"
   xmlns:inkscape="http://www.inkscape.org/namespaces/inkscape"
   xmlns:sodipodi="http://sodipodi.sourceforge.net/DTD/sodipodi-0.dtd"
   xmlns="http://www.w3.org/2000/svg"
   xmlns:svg="http://www.w3.org/2000/svg">
  <defs
     id="defs1" />
  <sodipodi:namedview
     id="namedview1"
     pagecolor="#ffffff"
     bordercolor="#000000"
     borderopacity="0.25"
     inkscape:showpageshadow="2"
     inkscape:pageopacity="0.0"
     inkscape:pagecheckerboard="0"
     inkscape:deskcolor="#d1d1d1"
     showgrid="false"
     inkscape:zoom="33.916667"
     inkscape:cx="12"
     inkscape:cy="12"
     inkscape:window-width="1920"
     inkscape:window-height="1009"
     inkscape:window-x="-8"
     inkscape:window-y="-8"
     inkscape:window-maximized="1"
     inkscape:current-layer="info-icon" />
  <path
     d="M12 0C5.373 0 0 5.375 0 12c0 6.629 5.373 12 12 12s12-5.371 12-12c0-6.625-5.373-12-12-12m0 5.323a2.032 2.032 0 1 1 0 4.064 2.032 2.032 0 0 1 0-4.064m2.71 12.29c0 .32-.26.58-.581.58H9.871a.58.58 0 0 1-.58-.58v-1.161c0-.321.26-.581.58-.581h.58v-3.097h-.58a.58.58 0 0 1-.58-.58v-1.162c0-.32.26-.58.58-.58h3.097c.32 0 .58.26.58.58v4.839h.581c.32 0 .58.26.58.58z"
     id="path1"
     style="fill:#95a4ff;fill-opacity:1" />
</svg>
